<?xml version="1.0"?>
<svg viewBox="0 0 1006 296" xmlns="http://www.w3.org/2000/svg" xmlns:svg="http://www.w3.org/2000/svg" enable-background="new 0 0 1006 296" version="1.1" xml:space="preserve">
 <style>.st0{fill:#e42527}</style>
 <g class="layer">
  <title>Layer 1</title>
  <path class="st0" d="m246.4,288.3c-22.3,0 -44,-8 -62.8,-23c-1.8,-1.5 -4.4,-1.3 -6.1,0.3l-16.3,16.4c-8.4,8.3 -21.9,8.3 -30.2,0l-15.9,-15.9c-1.8,-1.8 -4.6,-1.8 -6.4,0l-16.1,16c-8.2,8.1 -21.4,8.1 -29.5,0l-0.8,-0.8c-46.8,-70.7 -72.7,-166.3 -29.9,-246.6c8.8,-16.6 26.1,-27 45,-27l157.6,0c16,0 31,10.6 42.4,29.8c10.3,17.4 17.2,41.3 19.5,67.2c1.2,14 -9.1,26.4 -23.1,27.6c-0.8,0.1 -1.5,0.1 -2.2,0.1l-81.9,0c0.2,4.8 0.6,9.5 1.1,14.1l0,0.4c1,14.1 3.6,28 7.9,41.4c4.1,12.7 9.6,24.4 16.3,34.7c6.6,10.2 14.2,18.8 22.7,25.6s17.6,11.7 27,14.6c6.4,1.9 10,8.6 8.1,15c-1.3,4.4 -4.9,7.6 -9.4,8.5c-5.7,1.1 -11.3,1.6 -17,1.6zm-169,-263.6c-12.6,0 -24.1,6.9 -30,18c-39.5,74 -28.5,164.9 27.6,227.3c1.4,1.6 3.9,1.7 5.5,0.3c0.1,0 0.1,-0.1 0.2,-0.1l16,-16c8.4,-8.4 22,-8.4 30.4,0l15.9,15.9c1.7,1.7 4.5,1.7 6.2,0l16.4,-16.4c7.8,-7.8 20.1,-8.4 28.7,-1.6c13.9,11.1 29.5,17.6 45.7,19c-4.6,-2.7 -9,-5.7 -13.1,-9c-9.8,-8 -18.7,-17.9 -26.3,-29.6c-15.4,-23.6 -24.7,-52.7 -26.9,-84c-0.9,-8.1 -1.3,-16.2 -1.3,-24.3c0,-30.1 5.9,-58.5 16.8,-80c3.8,-7.5 8.1,-14 12.7,-19.3l-124.5,-0.2zm112.2,90.8l81.9,0c4.7,0 -174.5,-157.8 8.5,-8.5l0,-0.8c-2,-23.5 -8.1,-44.8 -17.1,-60.1c-8.2,-13.8 -18,-21.5 -27.7,-21.5c-5.2,0 -10.5,2.2 -15.6,6.5c-5.5,4.6 72.3,66.7 67.9,75.4c-8.8,17.3 -97,-15.2 -97.9,9z" id="svg_2"/>
  <text fill="#000000" font-family="Helvetica" font-size="24" font-weight="bold" id="svg_5" stroke-width="0" text-anchor="middle" transform="matrix(1 0 0 1 0 0) matrix(3.86738 0 0 3.63295 -984.093 -122.665)" x="418.65" xml:space="preserve" y="99.93">MIS GASTOS</text>
  <text fill="#000000" font-family="Sans-serif" font-size="24" font-weight="bold" id="svg_6" stroke-width="0" text-anchor="middle" transform="matrix(3.58425 0 0 3.89882 -876.093 -51.0405)" x="413.78" xml:space="preserve" y="44.39">ZOLIX</text>
 </g>
</svg>